<svg width='200' height='200' fill="#000000" xmlns="http://www.w3.org/2000/svg" xmlns:xlink="http://www.w3.org/1999/xlink" version="1.1" x="0px" y="0px" viewBox="0 0 100 100" style="enable-background:new 0 0 100 100;" xml:space="preserve"><path d="M87,5H13c-2.2,0-4,1.8-4,4v82c0,2.2,1.8,4,4,4h20h34h20c2.2,0,4-1.8,4-4V9C91,6.8,89.2,5,87,5z M37,91V71h26v20H37z M67,91  V71c0-2.2-1.8-4-4-4H37c-2.2,0-4,1.8-4,4v20H13V9h74l0,82H67z M53,54c0,1.7-1.3,3-3,3s-3-1.3-3-3s1.3-3,3-3S53,52.3,53,54z M69,54  c0,1.7-1.3,3-3,3s-3-1.3-3-3s1.3-3,3-3S69,52.3,69,54z M37,22c0,1.7-1.3,3-3,3s-3-1.3-3-3s1.3-3,3-3S37,20.3,37,22z M37,54  c0,1.7-1.3,3-3,3s-3-1.3-3-3s1.3-3,3-3S37,52.3,37,54z M37,38c0,1.7-1.3,3-3,3s-3-1.3-3-3s1.3-3,3-3S37,36.3,37,38z M53,22  c0,1.7-1.3,3-3,3s-3-1.3-3-3s1.3-3,3-3S53,20.3,53,22z M53,38c0,1.7-1.3,3-3,3s-3-1.3-3-3s1.3-3,3-3S53,36.3,53,38z M69,22  c0,1.7-1.3,3-3,3s-3-1.3-3-3s1.3-3,3-3S69,20.3,69,22z M69,38c0,1.7-1.3,3-3,3s-3-1.3-3-3s1.3-3,3-3S69,36.3,69,38z"/></svg>