<svg width='200' height='200' fill="#000000" xmlns="http://www.w3.org/2000/svg" xmlns:xlink="http://www.w3.org/1999/xlink" version="1.1" x="0px" y="0px" viewBox="0 0 132.776 132.776" enable-background="new 0 0 132.776 132.776" xml:space="preserve"><g><polygon fill="#000000" points="113.39,128.626 111.89,128.626 111.89,90.778 81.856,80.575 67.857,124.328 53.857,80.575    23.825,90.778 23.825,128.626 22.325,128.626 22.325,89.704 54.82,78.664 67.857,119.406 80.894,78.664 113.39,89.704  "/></g><g><polygon fill="#000000" points="55.804,81.802 54.831,80.661 58.575,77.468 57.657,66.928 59.151,66.798 60.136,78.108  "/></g><g><polygon fill="#000000" points="79.995,81.802 75.664,78.108 76.647,66.798 78.142,66.928 77.225,77.468 80.968,80.661  "/></g><g><path fill="#000000" d="M98.074,67.062H37.64V6.626h60.435V67.062z M39.14,65.562h57.435V8.126H39.14V65.562z"/></g><g><polygon fill="#000000" points="67.857,57.309 47.923,37.374 48.983,36.313 67.857,55.188 86.731,36.313 87.792,37.374  "/></g></svg>