<svg width='200' height='200' fill="#000000" xmlns="http://www.w3.org/2000/svg" xmlns:xlink="http://www.w3.org/1999/xlink" version="1.1" x="0px" y="0px" viewBox="0 0 90 90" enable-background="new 0 0 90 90" xml:space="preserve"><path d="M57.273,49.596c4.349-3.561,7.13-8.967,7.13-15.013c0-10.699-8.704-19.403-19.403-19.403s-19.403,8.704-19.403,19.403  c0,6.046,2.782,11.453,7.13,15.013c-8.828,4.491-14.894,13.66-14.894,24.225c0,0.553,0.448,1,1,1s1-0.447,1-1  c0-10.16,6.056-18.927,14.744-22.898c3.015,1.931,6.585,3.064,10.423,3.064c3.838,0,7.408-1.134,10.423-3.064  c8.688,3.972,14.744,12.738,14.744,22.898c0,0.553,0.447,1,1,1s1-0.447,1-1C72.167,63.256,66.102,54.087,57.273,49.596z M45,51.986  c-2.913,0-5.655-0.728-8.07-1.998c-0.748-0.394-1.457-0.845-2.135-1.339c-4.353-3.166-7.198-8.285-7.198-14.067  c0-9.596,7.807-17.403,17.403-17.403c9.597,0,17.403,7.807,17.403,17.403c0,5.783-2.846,10.901-7.198,14.067  c-0.679,0.494-1.388,0.945-2.135,1.339C50.655,51.259,47.913,51.986,45,51.986z"/></svg>